<svg width="200" height="69" viewBox="0 0 200 69" fill="none" xmlns="http://www.w3.org/2000/svg">
<path fill-rule="evenodd" clip-rule="evenodd" d="M32.9531 32.1664V33.3355C32.9531 33.5227 32.8001 33.6742 32.6144 33.6742H31.937C31.7498 33.6742 31.5983 33.5212 31.5983 33.3355V32.1664C31.1407 31.9228 30.8273 31.4415 30.8273 30.8859C30.8273 30.0866 31.475 29.4375 32.2757 29.4375C33.0764 29.4375 33.724 30.0852 33.724 30.8859C33.724 31.4415 33.4121 31.9228 32.9531 32.1664ZM32.2742 38.1783C33.6111 36.7478 34.7862 35.1612 35.7785 33.441C36.7693 31.7237 37.5567 29.9114 38.1271 28.0366C36.2197 27.5939 34.2588 27.3711 32.2742 27.3711C30.2895 27.3711 28.3272 27.5954 26.4198 28.0366C26.9902 29.9114 27.7776 31.7237 28.7684 33.441C29.7607 35.1612 30.9357 36.7478 32.2727 38.1783H32.2742Z" fill="white"/>
<mask id="mask0_2362_151" style="mask-type:luminance" maskUnits="userSpaceOnUse" x="26" y="27" width="13" height="12">
<path d="M32.9531 32.1664V33.3355C32.9531 33.5227 32.8001 33.6742 32.6144 33.6742H31.937C31.7498 33.6742 31.5983 33.5212 31.5983 33.3355V32.1664C31.1407 31.9228 30.8273 31.4415 30.8273 30.8859C30.8273 30.0866 31.475 29.4375 32.2757 29.4375C33.0764 29.4375 33.724 30.0852 33.724 30.8859C33.724 31.4415 33.4121 31.9228 32.9531 32.1664ZM32.2742 38.1783C33.6111 36.7478 34.7862 35.1612 35.7785 33.441C36.7693 31.7237 37.5567 29.9114 38.1271 28.0366C36.2197 27.5939 34.2588 27.3711 32.2742 27.3711C30.2895 27.3711 28.3272 27.5954 26.4198 28.0366C26.9902 29.9114 27.7776 31.7237 28.7684 33.441C29.7607 35.1612 30.9357 36.7478 32.2727 38.1783H32.2742Z" fill="white"/>
</mask>
<g mask="url(#mask0_2362_151)">
<path d="M38.1286 27.3711H26.4213V38.1783H38.1286V27.3711Z" fill="white"/>
</g>
<path fill-rule="evenodd" clip-rule="evenodd" d="M55.9295 17.4728C50.8312 14.0561 44.953 11.7119 38.6188 10.7642V15.2237C43.1957 15.9903 47.5928 17.5857 51.6185 19.9611C51.6764 26.0607 50.2682 32.0429 47.5111 37.4859L43.6903 35.2799L39.8681 33.0724C39.5606 33.7052 39.2294 34.3277 38.8758 34.9412C37.1348 37.9568 34.9036 40.6085 32.2727 42.8041C31.2685 41.9663 30.3208 41.0601 29.4384 40.093L25.5449 42.3406C27.5087 44.618 29.7667 46.6204 32.2727 48.2976C35.9583 45.8301 39.112 42.6585 41.575 38.9417L48.3935 42.8784L49.215 43.3538C49.5952 42.764 49.9637 42.1624 50.3172 41.5474C54.695 33.9652 56.4717 25.5957 55.928 17.4713L55.9295 17.4728Z" fill="white"/>
<path fill-rule="evenodd" clip-rule="evenodd" d="M12.9299 19.9613C18.1812 16.864 24.0712 15.0903 30.1588 14.756V23.5816C30.86 23.5311 31.5656 23.5073 32.2742 23.5073C35.7577 23.5073 39.1684 24.1134 42.3846 25.2929C42.1602 26.5823 41.8498 27.8554 41.4546 29.1033L45.3481 31.3509C46.339 28.512 46.9436 25.5543 47.1426 22.5447C43.1615 20.5852 38.8416 19.4414 34.3895 19.1666V10.344C33.6884 10.3098 32.9843 10.292 32.2742 10.292C23.5201 10.292 15.3839 12.9377 8.61894 17.4716C8.20894 23.5949 9.11807 29.8579 11.4637 35.8179L15.326 33.5881C13.7009 29.2414 12.8853 24.6348 12.9299 19.9613Z" fill="white"/>
<path fill-rule="evenodd" clip-rule="evenodd" d="M32.2742 53.4673C26.9635 50.4681 22.4862 46.2566 19.1512 41.1493L25.4082 37.538L26.7957 36.7373C26.402 36.1549 26.0276 35.5563 25.6726 34.9428C23.9316 31.9256 22.7506 28.6694 22.1638 25.2942C23.3923 24.8426 24.6506 24.4757 25.9296 24.1949V19.6997C22.9749 20.2612 20.1123 21.2164 17.4072 22.5475C17.7014 26.9744 18.8705 31.2883 20.8581 35.2815L17.0373 37.4875L15.6989 38.2599L14.8938 38.7249L13.2166 39.6935C13.5375 40.3174 13.8747 40.9369 14.2297 41.5519C18.6075 49.134 24.967 54.8578 32.2742 58.4483C37.7825 55.7417 42.7515 51.8229 46.7386 46.8107L42.8763 44.5809C39.9246 48.161 36.3415 51.1722 32.2742 53.4703V53.4673Z" fill="white"/>
<path d="M186.778 28.3103V46.4201H183.665V28.3103H186.778ZM183.431 23.5067C183.431 23.0046 183.581 22.5806 183.883 22.2347C184.195 21.8888 184.652 21.7158 185.255 21.7158C185.846 21.7158 186.298 21.8888 186.611 22.2347C186.934 22.5806 187.096 23.0046 187.096 23.5067C187.096 23.9865 186.934 24.3994 186.611 24.7453C186.298 25.08 185.846 25.2474 185.255 25.2474C184.652 25.2474 184.195 25.08 183.883 24.7453C183.581 24.3994 183.431 23.9865 183.431 23.5067Z" fill="white"/>
<path d="M175.447 43.3237V34.001C175.447 33.2869 175.302 32.6676 175.012 32.1432C174.733 31.6076 174.309 31.1947 173.74 30.9046C173.171 30.6145 172.468 30.4695 171.631 30.4695C170.85 30.4695 170.164 30.6033 169.572 30.8711C168.992 31.1389 168.534 31.4904 168.2 31.9256C167.876 32.3608 167.714 32.8294 167.714 33.3315H164.618C164.618 32.6844 164.785 32.0428 165.12 31.4067C165.455 30.7707 165.935 30.1961 166.559 29.6828C167.195 29.1584 167.954 28.7455 168.836 28.4442C169.728 28.1318 170.721 27.9756 171.815 27.9756C173.132 27.9756 174.292 28.1988 175.296 28.6451C176.312 29.0914 177.104 29.7665 177.673 30.6703C178.253 31.563 178.543 32.6844 178.543 34.0345V42.4701C178.543 43.0727 178.594 43.7143 178.694 44.3949C178.806 45.0756 178.967 45.6614 179.179 46.1523V46.4201H175.949C175.793 46.0631 175.67 45.5889 175.581 44.9975C175.492 44.3949 175.447 43.837 175.447 43.3237ZM175.983 35.4404L176.016 37.6163H172.886C172.005 37.6163 171.218 37.6888 170.526 37.8339C169.834 37.9678 169.254 38.1742 168.785 38.4532C168.317 38.7321 167.96 39.0836 167.714 39.5076C167.469 39.9205 167.346 40.4059 167.346 40.9638C167.346 41.5328 167.474 42.0517 167.731 42.5203C167.988 42.989 168.373 43.3628 168.886 43.6417C169.41 43.9095 170.052 44.0434 170.811 44.0434C171.759 44.0434 172.596 43.8426 173.321 43.4409C174.047 43.0392 174.621 42.5482 175.045 41.968C175.48 41.3878 175.715 40.8243 175.748 40.2775L177.07 41.7672C176.992 42.2358 176.78 42.7547 176.434 43.3237C176.089 43.8928 175.625 44.4396 175.045 44.964C174.476 45.4773 173.796 45.9069 173.003 46.2528C172.222 46.5875 171.341 46.7549 170.359 46.7549C169.131 46.7549 168.055 46.515 167.128 46.0352C166.213 45.5554 165.499 44.9138 164.986 44.1104C164.484 43.2958 164.233 42.3864 164.233 41.3822C164.233 40.4114 164.423 39.5578 164.802 38.8214C165.181 38.0738 165.728 37.4545 166.442 36.9635C167.156 36.4614 168.016 36.082 169.02 35.8254C170.024 35.5688 171.145 35.4404 172.384 35.4404H175.983Z" fill="white"/>
<path d="M155.781 44.7799C155.781 44.2554 155.942 43.8147 156.266 43.4576C156.601 43.0894 157.08 42.9053 157.705 42.9053C158.33 42.9053 158.804 43.0894 159.128 43.4576C159.463 43.8147 159.63 44.2554 159.63 44.7799C159.63 45.2931 159.463 45.7283 159.128 46.0854C158.804 46.4424 158.33 46.621 157.705 46.621C157.08 46.621 156.601 46.4424 156.266 46.0854C155.942 45.7283 155.781 45.2931 155.781 44.7799Z" fill="white"/>
<path d="M148.567 41.6165C148.567 41.1702 148.466 40.7573 148.265 40.378C148.076 39.9874 147.68 39.6359 147.077 39.3235C146.486 38.9999 145.593 38.721 144.399 38.4866C143.395 38.2746 142.486 38.0236 141.671 37.7335C140.868 37.4433 140.181 37.0919 139.612 36.679C139.054 36.2662 138.625 35.7808 138.324 35.2229C138.022 34.6649 137.872 34.0122 137.872 33.2646C137.872 32.5505 138.028 31.8754 138.34 31.2394C138.664 30.6033 139.116 30.0399 139.696 29.5489C140.287 29.0579 140.996 28.673 141.822 28.394C142.647 28.1151 143.568 27.9756 144.583 27.9756C146.034 27.9756 147.272 28.2322 148.299 28.7455C149.326 29.2588 150.112 29.945 150.659 30.8042C151.206 31.6522 151.479 32.5951 151.479 33.6328H148.383C148.383 33.1307 148.232 32.6453 147.931 32.1767C147.641 31.6969 147.211 31.3007 146.642 30.9883C146.084 30.6759 145.398 30.5197 144.583 30.5197C143.724 30.5197 143.027 30.6536 142.491 30.9214C141.967 31.178 141.582 31.5072 141.336 31.9089C141.102 32.3106 140.985 32.7346 140.985 33.1809C140.985 33.5156 141.041 33.8169 141.152 34.0847C141.275 34.3414 141.487 34.5813 141.788 34.8044C142.089 35.0164 142.513 35.2173 143.06 35.407C143.607 35.5967 144.304 35.7863 145.152 35.976C146.636 36.3108 147.858 36.7125 148.818 37.1811C149.777 37.6498 150.492 38.2244 150.96 38.9051C151.429 39.5857 151.663 40.4114 151.663 41.3822C151.663 42.1744 151.496 42.8997 151.161 43.5581C150.837 44.2164 150.363 44.7855 149.738 45.2653C149.125 45.7339 148.388 46.1021 147.529 46.3699C146.681 46.6266 145.727 46.7549 144.667 46.7549C143.071 46.7549 141.721 46.4704 140.617 45.9013C139.512 45.3322 138.675 44.5958 138.106 43.692C137.537 42.7881 137.252 41.8341 137.252 40.8299H140.365C140.41 41.6779 140.656 42.353 141.102 42.8551C141.548 43.3461 142.095 43.6975 142.742 43.9095C143.389 44.1104 144.031 44.2108 144.667 44.2108C145.515 44.2108 146.224 44.0992 146.793 43.8761C147.373 43.6529 147.814 43.3461 148.115 42.9555C148.416 42.565 148.567 42.1186 148.567 41.6165Z" fill="white"/>
<path d="M129.503 31.1557V46.4201H126.406V28.3103H129.419L129.503 31.1557ZM135.16 28.2099L135.143 31.0887C134.887 31.0329 134.641 30.9995 134.407 30.9883C134.184 30.966 133.927 30.9548 133.637 30.9548C132.923 30.9548 132.292 31.0664 131.746 31.2896C131.199 31.5127 130.736 31.8252 130.357 32.2269C129.977 32.6286 129.676 33.1084 129.453 33.6663C129.241 34.213 129.101 34.8156 129.034 35.4739L128.164 35.976C128.164 34.8825 128.27 33.856 128.482 32.8964C128.705 31.9368 129.045 31.0887 129.503 30.3523C129.96 29.6047 130.541 29.0245 131.244 28.6116C131.958 28.1876 132.806 27.9756 133.788 27.9756C134.011 27.9756 134.267 28.0035 134.558 28.0593C134.848 28.1039 135.049 28.1541 135.16 28.2099Z" fill="white"/>
<path d="M115.745 46.7549C114.484 46.7549 113.34 46.5429 112.314 46.1189C111.298 45.6837 110.422 45.0756 109.686 44.2945C108.961 43.5134 108.403 42.5873 108.012 41.5161C107.622 40.4449 107.426 39.2733 107.426 38.0013V37.2983C107.426 35.8254 107.644 34.5143 108.079 33.365C108.514 32.2046 109.106 31.2226 109.853 30.4192C110.601 29.6158 111.449 29.0077 112.397 28.5949C113.346 28.182 114.328 27.9756 115.343 27.9756C116.637 27.9756 117.753 28.1988 118.691 28.6451C119.639 29.0914 120.415 29.7163 121.017 30.5197C121.62 31.3119 122.066 32.2492 122.356 33.3315C122.646 34.4027 122.791 35.5743 122.791 36.8464V38.2356H109.267V35.7082H119.695V35.4739C119.65 34.6705 119.483 33.8894 119.193 33.1307C118.914 32.3719 118.467 31.7471 117.854 31.2561C117.24 30.7651 116.403 30.5197 115.343 30.5197C114.64 30.5197 113.993 30.6703 113.402 30.9716C112.81 31.2617 112.302 31.6969 111.878 32.2771C111.454 32.8573 111.125 33.5659 110.891 34.4027C110.657 35.2396 110.539 36.2048 110.539 37.2983V38.0013C110.539 38.8604 110.657 39.6694 110.891 40.4282C111.136 41.1758 111.488 41.8341 111.945 42.4032C112.414 42.9723 112.978 43.4186 113.636 43.7422C114.305 44.0658 115.064 44.2276 115.912 44.2276C117.006 44.2276 117.932 44.0044 118.691 43.5581C119.449 43.1117 120.113 42.5148 120.682 41.7672L122.557 43.2568C122.166 43.8482 121.67 44.4117 121.067 44.9473C120.465 45.4829 119.723 45.918 118.841 46.2528C117.971 46.5875 116.939 46.7549 115.745 46.7549Z" fill="white"/>
<path d="M97.568 46.7549C96.3072 46.7549 95.1634 46.5429 94.1369 46.1189C93.1215 45.6837 92.2456 45.0756 91.5091 44.2945C90.7838 43.5134 90.2259 42.5873 89.8354 41.5161C89.4448 40.4449 89.2496 39.2733 89.2496 38.0013V37.2983C89.2496 35.8254 89.4672 34.5143 89.9023 33.365C90.3375 32.2046 90.9289 31.2226 91.6765 30.4192C92.4241 29.6158 93.2721 29.0077 94.2206 28.5949C95.169 28.182 96.1509 27.9756 97.1663 27.9756C98.4607 27.9756 99.5765 28.1988 100.514 28.6451C101.462 29.0914 102.238 29.7163 102.84 30.5197C103.443 31.3119 103.889 32.2492 104.179 33.3315C104.469 34.4027 104.614 35.5743 104.614 36.8464V38.2356H91.0907V35.7082H101.518V35.4739C101.473 34.6705 101.306 33.8894 101.016 33.1307C100.737 32.3719 100.291 31.7471 99.6769 31.2561C99.0632 30.7651 98.2264 30.5197 97.1663 30.5197C96.4634 30.5197 95.8162 30.6703 95.2248 30.9716C94.6334 31.2617 94.1257 31.6969 93.7017 32.2771C93.2777 32.8573 92.9485 33.5659 92.7142 34.4027C92.4799 35.2396 92.3627 36.2048 92.3627 37.2983V38.0013C92.3627 38.8604 92.4799 39.6694 92.7142 40.4282C92.9597 41.1758 93.3112 41.8341 93.7687 42.4032C94.2373 42.9723 94.8008 43.4186 95.4591 43.7422C96.1286 44.0658 96.8874 44.2276 97.7354 44.2276C98.8289 44.2276 99.755 44.0044 100.514 43.5581C101.273 43.1117 101.936 42.5148 102.506 41.7672L104.38 43.2568C103.99 43.8482 103.493 44.4117 102.891 44.9473C102.288 45.4829 101.546 45.918 100.664 46.2528C99.7941 46.5875 98.762 46.7549 97.568 46.7549Z" fill="white"/>
<path d="M83.1572 40.2608C83.1572 39.6917 83.0679 39.1896 82.8894 38.7544C82.722 38.3081 82.4207 37.9064 81.9856 37.5494C81.5615 37.1923 80.9702 36.852 80.2114 36.5284C79.4638 36.2048 78.5154 35.8756 77.3661 35.5409C76.161 35.1838 75.073 34.7877 74.1023 34.3525C73.1315 33.9062 72.3002 33.3985 71.6084 32.8294C70.9166 32.2603 70.3866 31.6076 70.0184 30.8711C69.6501 30.1347 69.466 29.2923 69.466 28.3438C69.466 27.3954 69.6613 26.5194 70.0518 25.716C70.4424 24.9127 71.0003 24.2153 71.7256 23.6239C72.462 23.0213 73.3379 22.5527 74.3533 22.2179C75.3687 21.8832 76.5013 21.7158 77.751 21.7158C79.581 21.7158 81.132 22.0673 82.404 22.7703C83.6872 23.4621 84.6635 24.3715 85.333 25.4985C86.0025 26.6143 86.3373 27.8082 86.3373 29.0803H83.1237C83.1237 28.1653 82.9284 27.3563 82.5379 26.6533C82.1474 25.9392 81.556 25.3813 80.7637 24.9796C79.9715 24.5667 78.9673 24.3603 77.751 24.3603C76.6017 24.3603 75.6533 24.5333 74.9057 24.8792C74.1581 25.2251 73.6001 25.6937 73.2319 26.2851C72.8749 26.8765 72.6963 27.5516 72.6963 28.3103C72.6963 28.8236 72.8023 29.2923 73.0143 29.7163C73.2375 30.1291 73.5778 30.5141 74.0353 30.8711C74.504 31.2282 75.0954 31.5574 75.8095 31.8587C76.5348 32.1599 77.3995 32.45 78.4038 32.729C79.7874 33.1195 80.9813 33.5547 81.9856 34.0345C82.9898 34.5143 83.8155 35.0555 84.4627 35.658C85.121 36.2494 85.6064 36.9245 85.9188 37.6833C86.2424 38.4309 86.4042 39.2789 86.4042 40.2273C86.4042 41.2204 86.2034 42.1186 85.8017 42.922C85.4 43.7254 84.8253 44.4117 84.0777 44.9807C83.3301 45.5498 82.4319 45.9906 81.383 46.303C80.3453 46.6043 79.1848 46.7549 77.9016 46.7549C76.7747 46.7549 75.6644 46.5987 74.5709 46.2862C73.4886 45.9738 72.5011 45.5052 71.6084 44.8803C70.7269 44.2554 70.0184 43.4855 69.4828 42.5706C68.9583 41.6444 68.6961 40.5732 68.6961 39.357H71.9097C71.9097 40.1939 72.0715 40.9136 72.3951 41.5161C72.7186 42.1075 73.1594 42.5985 73.7173 42.989C74.2864 43.3795 74.928 43.6696 75.6421 43.8593C76.3674 44.0379 77.1206 44.1271 77.9016 44.1271C79.0286 44.1271 79.9827 43.9709 80.7637 43.6585C81.5448 43.3461 82.1362 42.8997 82.5379 42.3195C82.9507 41.7393 83.1572 41.053 83.1572 40.2608Z" fill="white"/>
</svg>
